HIERARCHY
ROOT hip
{
	OFFSET 0.000000 0.000000 0.000000 
	CHANNELS 6 Xposition Yposition Zposition Xrotation Zrotation Yrotation
	JOINT abdomen
	{
		OFFSET 0.000000 3.402643 0.000000 
		CHANNELS 3 Xrotation Zrotation Yrotation
		JOINT chest
		{
			OFFSET 0.000000 8.438565 -0.680529 
			CHANNELS 3 Xrotation Zrotation Yrotation
			JOINT neck
			{
				OFFSET 0.000000 10.207942 -0.272212 
				CHANNELS 3 Xrotation Zrotation Yrotation
				JOINT head
				{
					OFFSET 0.000000 3.130431 0.000000 
					CHANNELS 3 Xrotation Zrotation Yrotation
					End Site
					{
						OFFSET 0.000000 3.130435 0.000000 
					}
				}
			}
			JOINT lCollar
			{
				OFFSET 3.470700 6.669187 -0.816635 
				CHANNELS 3 Yrotation Zrotation Xrotation
				JOINT lShldr
				{
					OFFSET 3.198488 0.000000 0.000000 
					CHANNELS 3 Zrotation Yrotation Xrotation
					JOINT lForeArm
					{
						OFFSET 10.139888 0.000000 0.000000 
						CHANNELS 3 Yrotation Zrotation Xrotation
						JOINT lHand
						{
							OFFSET 8.370511 0.000000 0.000000 
							CHANNELS 3 Zrotation Yrotation Xrotation
							End Site
							{
								OFFSET 4.083176 0.000000 0.000000 
							}
						}
					}
				}
			}
			JOINT rCollar
			{
				OFFSET -3.470700 6.669187 -0.816635 
				CHANNELS 3 Yrotation Zrotation Xrotation
				JOINT rShldr
				{
					OFFSET -3.198488 0.000000 0.000000 
					CHANNELS 3 Zrotation Yrotation Xrotation
					JOINT rForeArm
					{
						OFFSET -10.139888 0.000000 0.000000 
						CHANNELS 3 Yrotation Zrotation Xrotation
						JOINT rHand
						{
							OFFSET -8.370511 0.000000 0.000000 
							CHANNELS 3 Zrotation Yrotation Xrotation
							End Site
							{
								OFFSET -4.083176 0.000000 0.000000 
							}
						}
					}
				}
			}
		}
	}
	JOINT lThigh
	{
		OFFSET 5.308129 -1.633274 1.361059 
		CHANNELS 3 Xrotation Zrotation Yrotation
		JOINT lShin
		{
			OFFSET -2.041588 -20.007561 0.000000 
			CHANNELS 3 Xrotation Zrotation Yrotation
			JOINT lFoot
			{
				OFFSET 0.000000 -19.190928 -1.224953 
				CHANNELS 3 Xrotation Yrotation Zrotation
				End Site
				{
					OFFSET 0.000000 -2.449906 4.627600 
				}
			}
		}
	}
	JOINT rThigh
	{
		OFFSET -5.308129 -1.633274 1.361059 
		CHANNELS 3 Xrotation Zrotation Yrotation
		JOINT rShin
		{
			OFFSET 2.041588 -20.007561 0.000000 
			CHANNELS 3 Xrotation Zrotation Yrotation
			JOINT rFoot
			{
				OFFSET 0.000000 -19.190928 -1.224953 
				CHANNELS 3 Xrotation Yrotation Zrotation
				End Site
				{
					OFFSET 0.000000 -2.449906 4.627600 
				}
			}
		}
	}
}
MOTION
Frames: 13
Frame Time: 0.011111
-5.345121 47.295746 0.756668 8.789305 -9.286619 -147.236816 44.345974 0.674248 -11.036294 -33.094666 7.157268 -3.522740 -11.449759 -6.765465 -8.129590 9.832014 2.278265 -17.850674 2.656661 -4.973740 1.830115 64.146553 -78.759338 -83.818222 -84.791878 3.141849 26.258514 8.524705 12.647240 -0.667372 -4.438679 -1.473473 2.444106 27.344307 94.644508 7.954494 86.810478 -2.339737 32.076912 -8.534408 -12.637552 13.470561 -6.676136 -0.839599 4.186409 53.670040 -3.445338 -7.558502 -26.449955 -13.676437 -9.269567 -13.937510 -11.166208 2.027457 60.082756 2.706609 8.142848 -31.958471 3.538329 3.462215 
-5.346961 47.151031 0.565968 9.182378 -8.960402 -147.366409 44.280941 0.939973 -10.649090 -33.151375 7.027310 -3.464878 -10.924200 -6.750742 -8.245882 9.341755 2.303420 -18.006680 2.656661 -4.973740 1.830115 62.749023 -78.374733 -82.771538 -84.805405 3.127887 26.279900 8.524705 12.647240 -0.169325 -4.438679 -1.473473 2.444106 26.665550 94.715027 7.341440 86.724823 -2.189133 31.898684 -8.534408 -12.637552 12.708842 -6.963629 -0.186449 4.328415 54.620804 -3.324715 -7.665677 -26.893597 -13.724517 -9.378654 -13.693693 -10.463527 1.832397 60.728142 2.628334 8.189157 -32.406574 3.524694 3.416433 
-5.349720 46.954201 0.425243 9.416986 -8.710249 -147.675262 44.254086 1.042011 -10.199730 -33.382610 6.753307 -3.350635 -10.562946 -6.640194 -8.293470 9.019341 2.390893 -18.025141 2.656661 -4.973740 1.830115 61.439217 -78.066666 -81.664719 -84.824013 3.105514 26.301266 8.524705 12.647240 0.553331 -4.438679 -1.473473 2.444106 26.891766 94.647430 7.633571 86.688614 -2.122777 31.823826 -8.534408 -12.637552 12.738140 -7.373644 0.242678 4.514070 55.610619 -3.217240 -7.751523 -27.320101 -13.731091 -9.435830 -13.960608 -10.026449 1.662978 61.509644 2.540409 8.259150 -32.364494 3.687901 3.548993 
-5.342669 46.775764 0.243741 9.559478 -8.894777 -147.542923 44.390045 0.857270 -10.266661 -33.539349 6.719436 -3.343921 -10.424679 -6.524712 -8.328398 8.829448 2.355155 -18.049278 2.656661 -4.973740 1.830115 59.701248 -77.834465 -80.185547 -84.857391 3.069682 26.344452 8.524705 12.647240 1.442003 -4.438679 -1.473473 2.444106 28.427301 94.412910 9.240060 86.654617 -2.055669 31.749352 -8.534408 -12.637552 12.493999 -7.384027 0.233002 4.378011 56.531494 -3.119488 -7.825465 -27.669546 -13.912220 -9.600883 -14.024678 -10.043111 1.283494 62.281647 2.462109 8.313530 -32.366112 3.681027 3.532081 
-5.331631 46.599480 0.055493 9.904791 -8.761696 -147.576401 44.487373 0.883740 -9.883422 -33.383263 6.751793 -3.260616 -10.493765 -6.631497 -8.361550 9.007038 2.571927 -18.138725 2.656661 -4.973740 1.830115 57.233509 -77.570229 -78.013741 -84.904022 3.018975 26.398718 8.524705 12.647240 2.613878 -4.438679 -1.473473 2.444106 30.773144 94.142189 11.743274 86.617340 -1.987162 31.645367 -8.534408 -12.637552 11.820171 -7.515251 0.692412 4.396402 57.461090 -3.022541 -7.918641 -27.905287 -14.131995 -9.784767 -13.920982 -9.567146 1.115149 63.042686 2.364500 8.393367 -32.657730 3.646177 3.497898 
-5.314462 46.435143 -0.149310 10.324269 -8.516672 -147.618149 44.491329 1.035201 -9.553442 -32.836971 6.960700 -3.201031 -10.865683 -6.805069 -8.321045 9.479899 2.742315 -18.122446 2.656661 -4.973740 1.830115 54.353138 -77.083557 -75.464844 -84.968681 2.945990 26.484068 8.524705 12.647240 4.137315 -4.438679 -1.473473 2.444106 31.809284 94.051376 13.078527 86.598701 -1.948135 31.598583 -8.534408 -12.637552 11.673686 -7.740411 1.376141 4.496926 58.449322 -2.923540 -8.004264 -28.215782 -14.342876 -9.967065 -13.619532 -8.894311 0.915824 63.755848 2.276605 8.435438 -33.186459 3.462158 3.326554 
-5.315994 46.269276 -0.319162 10.432813 -8.510689 -147.500427 44.471378 1.054619 -9.624294 -33.032204 6.890389 -3.222864 -10.476446 -7.003882 -8.622813 9.235786 2.731018 -18.728922 2.656661 -4.973740 1.830115 53.234154 -76.867851 -74.628960 -85.000969 2.909375 26.527220 8.524705 12.647240 5.904893 -4.438679 -1.473473 2.444106 32.667812 93.987259 14.121330 86.579727 -1.909116 31.551821 -8.534408 -12.637552 11.449079 -8.053979 1.581601 4.523651 59.476303 -2.796616 -8.095614 -28.590664 -14.578702 -10.179616 -13.597381 -8.824224 0.520331 64.497787 2.188571 8.488167 -33.663372 3.627882 3.372407 
-5.308024 46.069988 -0.460501 10.626535 -8.415813 -147.488556 44.504028 1.128766 -9.473941 -33.449589 6.604737 -3.189305 -9.877679 -6.667010 -8.754791 9.260974 2.634530 -18.868053 2.656661 -4.973740 1.830115 53.036503 -76.815826 -74.503181 -85.032867 2.872532 26.569883 8.524705 12.647240 7.877550 -4.438679 -1.473473 2.444106 34.875519 93.833954 16.450176 86.569946 -1.888663 31.513826 -8.534408 -12.637552 11.263531 -8.443795 1.883559 4.532927 60.561382 -2.671179 -8.190240 -28.868587 -14.709779 -10.303817 -13.659113 -8.611455 0.165189 65.259071 2.100768 8.541400 -34.082432 3.606019 3.318588 
-5.288709 45.864880 -0.619009 10.968042 -8.240250 -147.553131 44.565475 1.143873 -9.098138 -33.788338 6.305729 -3.088216 -8.725530 -6.164534 -8.950311 8.365669 2.606392 -19.034473 2.656661 -4.973740 1.830115 52.991432 -76.906555 -74.393898 -85.096954 2.799391 26.664890 8.524705 12.647240 9.947863 -4.438679 -1.473473 2.444106 39.868443 93.548386 21.469130 86.555534 -1.859198 31.476496 -8.534408 -12.637552 11.068218 -8.751756 2.399208 4.611619 61.587639 -2.563878 -8.269035 -29.299616 -14.675152 -10.372869 -13.608872 -8.151576 -0.047013 66.039154 2.003141 8.608056 -34.454094 3.648799 3.312417 
-5.289014 45.683071 -0.782116 11.123277 -8.234366 -147.555161 44.613163 0.985553 -8.727736 -34.372944 6.015536 -2.964788 -7.441051 -5.755033 -9.227273 7.172736 2.455692 -19.385509 2.656661 -4.973740 1.830115 52.902542 -77.246437 -74.260536 -85.170387 2.708679 26.761852 8.524705 12.647240 12.018174 -4.438679 -1.473473 2.444106 49.967587 93.144913 31.705963 86.534103 -1.819183 31.410297 -8.534408 -12.637552 10.804545 -8.949124 2.673412 4.774078 62.476608 -2.465168 -8.340295 -29.877832 -14.641435 -10.447743 -13.695752 -8.004574 -0.153270 66.799744 1.915360 8.668447 -34.792328 3.963810 3.506594 
-5.309250 45.506168 -0.905366 10.938369 -8.430161 -147.439255 44.402405 0.640516 -8.757293 -34.284416 5.990380 -2.908995 -7.590027 -6.085964 -9.228188 7.582116 2.921578 -19.441177 2.656661 -4.973740 1.830115 51.642658 -77.322823 -73.145737 -85.170387 2.708679 26.761852 8.524705 12.647240 13.356065 -4.438679 -1.473473 2.444106 57.529152 92.995918 39.419216 86.516563 -1.778961 31.353836 -8.534408 -12.637552 10.326030 -9.246362 2.489786 4.829863 63.394421 -2.357945 -8.416982 -30.181599 -14.822311 -10.626377 -14.109382 -8.328803 -0.330328 67.638466 1.807890 8.720915 -35.306179 4.376297 3.733286 
-5.350333 45.345516 -0.994583 10.621031 -8.688969 -147.229126 44.641018 0.745550 -9.000059 -35.616493 5.366429 -2.971818 -8.474142 -6.382060 -9.179406 9.853164 3.018767 -19.532082 2.656661 -4.973740 1.830115 53.274460 -77.351471 -74.639442 -85.220764 2.649183 26.835955 8.524705 12.647240 13.844345 -4.438679 -1.473473 2.444106 60.341553 92.907829 42.375080 86.516624 -1.779600 31.363577 -8.534408 -12.637552 10.003765 -9.657500 2.031284 4.750710 64.419113 -2.245424 -8.506676 -30.454706 -14.661766 -10.574076 -14.586782 -8.855727 -0.578873 68.281998 1.748732 8.769343 -35.509003 4.567445 3.851057 
-5.302811 45.039227 -1.211651 11.247071 -8.285248 -147.245392 44.764206 1.034082 -8.438580 -35.889935 5.269406 -2.885958 -8.750965 -6.341764 -9.364928 10.928845 2.707966 -19.974972 2.656661 -4.973740 1.830115 53.526340 -77.480797 -74.695557 -85.305367 2.543694 26.973133 8.524705 12.647240 13.658798 -4.438679 -1.473473 2.444106 69.918327 92.799133 52.265423 86.523979 -1.798690 31.372326 -8.534408 -12.637552 9.701031 -10.126837 3.047026 4.956615 65.863213 -2.069933 -8.616778 -31.084644 -14.135464 -10.343468 -14.342740 -8.123441 -1.369950 68.973831 1.650396 8.814548 -35.693558 4.523164 3.816045 
